<?xml version="1.0" standalone="no"?>
<!DOCTYPE svg PUBLIC "-//W3C//DTD SVG 20010904//EN"
 "http://www.w3.org/TR/2001/REC-SVG-20010904/DTD/svg10.dtd">
<svg version="1.0" xmlns="http://www.w3.org/2000/svg"
 width="1080.000000pt" height="1080.000000pt" viewBox="0 0 1080.000000 1080.000000"
 preserveAspectRatio="xMidYMid meet">
<metadata>
Created by potrace 1.11, written by Peter Selinger 2001-2013
</metadata>
<g transform="translate(0.000000,1080.000000) scale(0.100000,-0.100000)"
fill="#000000" stroke="none">
<path d="M4825 9612 c-313 -158 -576 -291 -583 -295 -9 -6 178 -387 683 -1392
382 -761 695 -1385 695 -1387 0 -2 -111 -3 -247 -3 -137 0 -275 -4 -308 -8
-112 -15 -130 -18 -180 -27 -27 -5 -62 -12 -78 -14 -15 -3 -35 -7 -45 -10 -9
-3 -28 -7 -42 -10 -51 -8 -241 -66 -342 -104 -284 -107 -550 -259 -788 -451
-162 -130 -355 -328 -465 -476 -16 -22 -33 -42 -36 -45 -10 -8 -149 -219 -149
-226 0 -3 -9 -19 -21 -35 -57 -80 -199 -401 -248 -564 -21 -66 -21 -70 -4 -82
9 -7 23 -13 30 -13 7 0 116 -29 241 -64 125 -36 395 -112 601 -171 205 -58
374 -104 376 -103 1 2 12 35 25 73 192 585 772 1009 1390 1018 92 1 228 -8
280 -18 70 -13 91 -19 165 -40 318 -91 585 -274 785 -538 207 -271 310 -585
304 -927 -1 -80 -5 -163 -8 -185 -48 -293 -164 -550 -345 -764 -388 -459
-1002 -642 -1581 -472 -463 136 -853 516 -995 971 -36 116 -42 130 -57 125
-17 -6 -187 -46 -218 -51 -14 -3 -43 -10 -65 -16 -22 -5 -51 -12 -64 -15 -13
-2 -51 -11 -85 -19 -34 -8 -70 -16 -81 -18 -11 -2 -30 -6 -42 -10 -12 -4 -30
-9 -40 -11 -56 -11 -201 -45 -214 -49 -8 -3 -25 -8 -39 -10 -14 -3 -34 -7 -45
-10 -11 -2 -96 -22 -189 -42 -107 -24 -170 -43 -174 -52 -2 -8 12 -71 32 -140
193 -656 598 -1206 1161 -1574 344 -226 729 -370 1155 -434 176 -26 624 -26
780 0 14 3 41 7 60 10 294 44 630 160 920 317 52 28 252 154 268 169 9 9 33
26 52 40 117 81 342 291 450 420 30 36 57 67 60 70 38 38 220 304 220 321 0 5
3 9 8 9 4 0 12 10 18 23 6 12 31 60 56 107 51 97 124 262 161 365 56 159 119
413 132 540 4 31 8 65 10 76 9 44 19 221 19 329 0 207 -21 385 -70 595 -25
107 -93 329 -118 390 -7 17 -35 83 -61 148 -27 65 -78 177 -115 250 -328 647
-1246 2471 -2019 4015 -216 430 -396 782 -399 782 -4 -1 -263 -130 -577 -288z"/>
</g>
</svg>
